<svg width="312" height="259" viewBox="0 0 312 259" fill="none" xmlns="http://www.w3.org/2000/svg">
<g clip-path="url(#clip0_360_888)">
<path d="M90.8664 129.491L108.633 250.656C108.77 251.595 109.37 252.407 110.229 252.808L118.846 258.559C119.481 258.854 120.204 258.907 120.874 258.7L172.98 242.55C174.316 242.135 175.149 240.803 174.933 239.423L157.149 124.366C156.95 123.092 155.914 122.113 154.631 121.989L101.423 116.829C100.634 116.754 99.849 117.01 99.2581 117.544L91.7616 125.747C91.0604 126.377 90.7253 128.565 90.8576 129.496L90.8664 129.491Z" fill="#FF8500"/>
<path d="M98.5834 119.912L118.118 256.451C118.361 258.175 120.125 259.273 121.823 258.762L181.107 240.812C182.474 240.397 183.32 239.065 183.104 237.685L164.963 122.748C164.751 121.42 163.613 120.419 162.242 120.357L101.564 116.706C99.7653 116.626 98.3365 118.165 98.579 119.912H98.5834Z" fill="#FFE4B8"/>
<path d="M103.218 128.508L120.72 253.606C120.791 254.1 121.28 254.418 121.756 254.281L179.528 237.623C179.925 237.509 180.176 237.116 180.11 236.71L163.424 130.378C163.362 129.99 163.036 129.698 162.643 129.685L104.051 127.577C103.544 127.559 103.139 128.005 103.209 128.508H103.218Z" fill="#FFCA61" stroke="black" stroke-width="1.09" stroke-miterlimit="10"/>
<path d="M161.373 246.955L120.883 258.696C118.171 259.238 117.819 255.842 117.819 255.842L98.5041 120.821C98.5041 120.821 97.6662 116.706 101.569 116.706L162.246 120.357C162.246 120.357 164.222 120.551 164.967 122.748L178.712 209.463" stroke="black" stroke-width="1.09" stroke-miterlimit="10"/>
<path d="M118 195.14L123.636 234.586C123.636 234.586 126.021 242.82 133.169 241.956C133.169 241.956 138.368 242.604 142.055 235.455C142.055 235.455 142.703 232.853 142.487 232.204C142.271 231.556 140.754 219.635 140.754 219.635C140.754 219.635 140.212 214.109 147.58 211.723L173.152 209.5L170.334 192L119.334 195.047L118 195.14Z" fill="white" stroke="black" stroke-miterlimit="10" stroke-linecap="round" stroke-linejoin="round"/>
<path d="M213.919 225.984L173.504 234.007L174.589 241.972C174.589 241.972 174.307 245.412 172.261 247.608C171.485 248.442 170.201 249.015 169.143 249.333L196.695 243.489C196.695 243.489 212.618 239.364 213.919 238.5C215.22 237.631 214.819 236.622 214.898 236.194C214.982 235.736 215.013 229.755 214.321 229.98L213.924 225.984H213.919Z" fill="#515151"/>
<path d="M142.181 124.213L129.236 123.665C128.833 123.648 128.491 123.962 128.474 124.366L128.471 124.445C128.454 124.849 128.767 125.191 129.171 125.208L142.115 125.755C142.519 125.772 142.861 125.458 142.878 125.054L142.881 124.975C142.898 124.571 142.585 124.23 142.181 124.213Z" fill="#FF8500"/>
<path d="M193.008 208.815L150 212C150 212 154.437 213.075 155.517 216.255C156.598 219.435 159.42 242.408 159.42 242.408C159.42 242.408 161.512 250.372 168.5 249.5C168.5 249.5 176.913 250.404 173.694 233.945L201.568 228.564L199.777 215.722C199.777 215.722 198.64 209.463 193.008 208.815Z" fill="white" stroke="black" stroke-miterlimit="10" stroke-linecap="round" stroke-linejoin="round"/>
<path d="M126.546 125.182C126.986 125.072 127.24 124.576 127.115 124.075C126.99 123.574 126.532 123.257 126.093 123.367C125.653 123.477 125.398 123.973 125.524 124.473C125.649 124.974 126.107 125.291 126.546 125.182Z" fill="#FFFFFF"/>
<path d="M158.555 235.467L134.946 242.153C134.946 242.153 141.437 240.675 141.869 233.306L139.92 220.52C139.92 220.52 139.92 215.1 144.255 213.15C144.493 212.555 151.438 209.891 155.521 216.255L156.461 218.998L156.968 223.55L158.555 235.467Z" fill="#FFFFFF"/>
<path d="M158.555 235.467L134.946 242.153C134.946 242.153 141.437 240.675 141.869 233.306L139.92 220.52C139.92 220.52 139.92 215.1 144.255 213.15C144.493 212.555 151.438 209.891 155.521 216.255L156.461 218.998L156.968 223.55L158.555 235.467Z" stroke="black" stroke-width="0.33" stroke-miterlimit="10"/>
<path d="M99.2669 117.539L91.7704 125.742C91.7704 125.742 90.571 127.758 90.8664 129.491C91.1619 131.224 108.633 250.656 108.633 250.656C108.633 250.656 108.712 251.723 110.229 252.808C111.746 253.893 118.846 258.559 118.846 258.559" stroke="black" stroke-width="1.09" stroke-miterlimit="10"/>
<path d="M227.951 125.897L230.729 117.526C230.835 117.208 230.632 116.869 230.301 116.812L182.156 108.366C181.821 108.308 181.517 108.56 181.512 108.899L181.451 114.756" stroke="black" stroke-width="0.55" stroke-miterlimit="10"/>
<path d="M180.119 147.587L179.382 164.341C179.369 164.615 179.563 164.857 179.832 164.906L212.477 171.014C212.746 171.063 213.015 170.908 213.099 170.648L230.734 117.526C230.839 117.208 230.637 116.869 230.306 116.812L182.161 108.366C181.825 108.308 181.521 108.56 181.517 108.899L181.42 115.083" fill="#FFFFFF"/>
<path d="M180.119 147.587L179.382 164.341C179.369 164.615 179.563 164.857 179.832 164.906L212.477 171.014C212.746 171.063 213.015 170.908 213.099 170.648L230.734 117.526C230.839 117.208 230.637 116.869 230.306 116.812L182.161 108.366C181.825 108.308 181.521 108.56 181.517 108.899L181.42 115.083" stroke="black" stroke-width="1.09" stroke-miterlimit="10"/>
<path d="M181.658 103.462L181.468 95.3598C181.459 95.0202 181.759 94.7512 182.099 94.8041L194.234 96.5947C194.49 96.6344 194.684 96.8416 194.702 97.1018L194.86 99.4746C194.878 99.7304 195.068 99.9377 195.319 99.9818L234.12 106.522C234.455 106.58 234.658 106.924 234.548 107.246L232.96 111.828C232.872 112.079 232.616 112.234 232.352 112.19L182.121 103.995C181.861 103.951 181.667 103.731 181.658 103.466V103.462Z" fill="white" stroke="black" stroke-width="1.09" stroke-miterlimit="10"/>
<path d="M231.558 118.862C231.995 117.522 233.225 113.768 233.701 112.313C233.803 112 233.613 111.669 233.291 111.603C232.735 111.493 231.964 111.338 231.726 111.299C226.297 110.439 186.848 103.96 181.398 103.109C181.067 103.056 180.551 103.567 180.547 103.903L180.48 109.632C180.48 109.901 180.67 110.13 180.93 110.178L230.936 119.228C231.205 119.277 231.47 119.123 231.558 118.862Z" fill="white" stroke="black" stroke-width="1.09" stroke-miterlimit="10"/>
<path d="M192.506 119.378L226.959 125.663C226.959 125.663 228.418 125.826 228.264 127.118C228.114 128.411 220.384 151.6 220.384 151.6C220.384 151.6 219.445 152.323 218.867 152.107C218.289 151.891 180.441 145.029 180.441 145.029L180.586 125.16L192.506 119.383V119.378Z" fill="#FFFFFF"/>
<path d="M195.103 167.852C195.103 167.852 191.637 169.876 185.715 170.741C185.715 170.741 179.36 171.319 178.346 171.751C177.332 172.183 175.744 172.474 175.744 172.474L146.967 184.598C146.967 184.598 145.115 185.33 143.527 184.607C141.94 183.884 134.717 179.407 132.983 171.746C131.25 164.086 131.828 153.832 133.129 151.662C133.129 151.662 135.008 150.074 135.872 149.929C136.736 149.783 159.636 140.971 159.636 140.971C159.636 140.971 163.172 138.66 164.905 134.757C166.638 130.854 169.24 125.509 170.104 124.066C170.973 122.62 175.449 119.008 176.172 118.143C176.895 117.279 183.827 113.521 184.405 113.085C184.983 112.648 190.182 110.196 191.919 111.206C193.657 112.216 194.23 115.541 193.652 116.913C193.075 118.285 192.179 121.875 191.196 123.052C190.111 124.353 188.74 126.519 187.439 127.096C186.138 127.674 184.118 129.407 183.682 130.131C183.25 130.854 182.055 133.527 182.055 134.537C182.055 135.547 181.803 139.811 181.803 140.676C181.803 141.095 181.601 142.938 181.19 144.504C180.754 146.18 180.106 147.573 180.106 147.573L179.369 164.328C179.369 164.328 179.347 164.805 180.361 165.096C181.376 165.387 195.099 167.839 195.099 167.839L195.103 167.852Z" fill="#FFEFE1"/>
<path d="M180.119 147.587L179.382 164.341C179.369 164.615 179.563 164.857 179.832 164.906L212.477 171.014C212.746 171.063 213.015 170.908 213.099 170.648L219.202 152.262" stroke="black" stroke-width="1.09" stroke-miterlimit="10"/>
<path d="M204.386 139.656C207.398 137.831 208.708 134.484 207.312 132.179C205.916 129.875 202.343 129.487 199.331 131.312C196.319 133.137 195.009 136.485 196.405 138.789C197.801 141.093 201.374 141.481 204.386 139.656Z" fill="#5B330C" stroke="black" stroke-width="0.55" stroke-miterlimit="10"/>
<path d="M196.88 138.876C197.021 137.738 197.894 136.698 199.001 136.38C199.857 136.168 200.651 136.349 201.484 136.376C203.367 136.376 205.281 135.264 206.216 133.641C206.317 133.43 206.383 133.218 206.321 133.019C206.299 132.94 206.348 132.861 206.423 132.843C206.789 132.852 206.837 133.531 206.798 133.796C206.454 135.82 204.209 137.214 202.238 136.861C201.709 136.79 201.211 136.601 200.677 136.636C200.165 136.645 199.694 136.896 199.292 137.117C198.468 137.536 197.775 138.157 197.154 138.973C197.079 139.106 196.858 139.035 196.88 138.881V138.876Z" fill="white"/>
<path d="M219.565 151.876L181.5 145" stroke="black" stroke-width="0.8" stroke-miterlimit="10"/>
<path d="M192.867 119.594L227.413 125.703C228.07 125.813 228.476 126.483 228.268 127.118L220.393 151.34C220.225 151.86 219.538 152.097 219 152" stroke="black" stroke-width="1.09" stroke-miterlimit="10"/>
<path d="M175.89 152.897C186.509 143.578 177.945 133.443 185.865 128.186C187.174 127.317 192.36 124.274 193.657 116.922C194.958 109.552 188.237 111.285 188.237 111.285C181.817 114.602 175.281 117.38 170.938 123.33C166.802 128.997 165.73 136.751 159.636 140.976C157.766 142.268 136.392 149.563 134.509 150.608C133.46 151.19 132.732 152.213 132.547 153.399C131.692 158.908 128.208 177.07 142.804 184.32C143.884 184.858 145.882 185.132 146.967 184.598L173.2 173.493C175.418 172.404 177.804 171.72 180.256 171.455C184.171 171.028 190.521 170.035 194.733 167.839" stroke="black" stroke-width="1.09" stroke-miterlimit="10"/>
<path d="M181.27 114.972C181.27 114.972 182.284 119.198 185.75 118.981C189.6 118.739 197.101 113.014 189.326 111.069" stroke="black" stroke-width="1.09" stroke-miterlimit="10"/>
<path d="M132.565 147.349C134.315 145.315 136.494 143.904 139.007 143.348C141.931 142.7 144.682 143.392 147.147 145.082" stroke="white" stroke-width="0.55" stroke-miterlimit="10" stroke-linecap="round"/>
<path d="M152.223 187.54C151.284 188.109 150.239 188.528 149.083 188.783C140.555 190.675 131.383 182.036 128.605 169.488C127.07 162.564 127.802 155.9 130.197 150.996" stroke="white" stroke-width="0.55" stroke-miterlimit="10" stroke-linecap="round"/>
<path d="M155.522 182.591C155.522 182.591 155.089 185.41 154.005 186.494" stroke="white" stroke-width="0.57" stroke-miterlimit="10" stroke-linecap="round"/>
<path d="M136.454 140.543C124.751 145.527 122.308 159.151 125.187 170.666" stroke="white" stroke-width="0.57" stroke-miterlimit="10" stroke-linecap="round"/>
<path d="M158.771 181.074C158.771 181.074 159.204 192.559 147.721 191.262" stroke="white" stroke-width="0.57" stroke-miterlimit="10" stroke-linecap="round"/>
<path d="M159.856 131.008L150.106 142.713" stroke="white" stroke-width="0.57" stroke-miterlimit="10" stroke-linecap="round"/>
<path d="M129.301 178.688L117.602 193.644" stroke="white" stroke-width="0.57" stroke-miterlimit="10" stroke-linecap="round"/>
<path d="M131.251 182.375L125.835 190.393" stroke="white" stroke-width="0.57" stroke-miterlimit="10" stroke-linecap="round"/>
<path d="M125.403 135.128L115.217 150.299" stroke="white" stroke-width="0.57" stroke-miterlimit="10" stroke-linecap="round"/>
<path d="M140.886 67.5836L140.427 101.958C140.418 102.716 139.797 103.32 139.038 103.312L133.98 103.25C133.222 103.241 132.6 103.845 132.591 104.604L132.534 109.27C132.521 110.377 131.264 111.012 130.364 110.368L120.535 103.329C120.306 103.166 120.032 103.078 119.754 103.073L80.8212 102.602C80.0627 102.593 79.4586 101.971 79.4674 101.212L79.926 66.8383C79.9348 66.0797 80.5566 65.4755 81.315 65.4843L139.532 66.19C140.29 66.1988 140.895 66.8206 140.886 67.5792V67.5836Z" fill="#FFCA61" stroke="black" stroke-width="1.09" stroke-miterlimit="10"/>
<path d="M99.8804 78.5H98.9116C98.8543 78.2214 98.7541 77.9766 98.6108 77.7656C98.4702 77.5547 98.2983 77.3776 98.0952 77.2344C97.8947 77.0885 97.672 76.9792 97.4272 76.9062C97.1825 76.8333 96.9272 76.7969 96.6616 76.7969C96.1772 76.7969 95.7384 76.9193 95.3452 77.1641C94.9546 77.4089 94.6434 77.7695 94.4116 78.2461C94.1825 78.7227 94.0679 79.3073 94.0679 80C94.0679 80.6927 94.1825 81.2773 94.4116 81.7539C94.6434 82.2305 94.9546 82.5911 95.3452 82.8359C95.7384 83.0807 96.1772 83.2031 96.6616 83.2031C96.9272 83.2031 97.1825 83.1667 97.4272 83.0937C97.672 83.0208 97.8947 82.9128 98.0952 82.7695C98.2983 82.6237 98.4702 82.4453 98.6108 82.2344C98.7541 82.0208 98.8543 81.776 98.9116 81.5H99.8804C99.8075 81.9089 99.6746 82.2747 99.4819 82.5977C99.2892 82.9206 99.0496 83.1953 98.7632 83.4219C98.4767 83.6458 98.1551 83.8164 97.7983 83.9336C97.4442 84.0508 97.0653 84.1094 96.6616 84.1094C95.9793 84.1094 95.3726 83.9427 94.8413 83.6094C94.3101 83.276 93.8921 82.8021 93.5874 82.1875C93.2827 81.5729 93.1304 80.8437 93.1304 80C93.1304 79.1562 93.2827 78.4271 93.5874 77.8125C93.8921 77.1979 94.3101 76.724 94.8413 76.3906C95.3726 76.0573 95.9793 75.8906 96.6616 75.8906C97.0653 75.8906 97.4442 75.9492 97.7983 76.0664C98.1551 76.1836 98.4767 76.3555 98.7632 76.582C99.0496 76.806 99.2892 77.0794 99.4819 77.4023C99.6746 77.7227 99.8075 78.0885 99.8804 78.5ZM103.758 84.125C103.217 84.125 102.741 83.9961 102.333 83.7383C101.926 83.4805 101.609 83.1198 101.379 82.6562C101.153 82.1927 101.04 81.651 101.04 81.0312C101.04 80.4062 101.153 79.8607 101.379 79.3945C101.609 78.9284 101.926 78.5664 102.333 78.3086C102.741 78.0508 103.217 77.9219 103.758 77.9219C104.3 77.9219 104.774 78.0508 105.18 78.3086C105.589 78.5664 105.907 78.9284 106.133 79.3945C106.362 79.8607 106.477 80.4062 106.477 81.0312C106.477 81.651 106.362 82.1927 106.133 82.6562C105.907 83.1198 105.589 83.4805 105.18 83.7383C104.774 83.9961 104.3 84.125 103.758 84.125ZM103.758 83.2969C104.17 83.2969 104.508 83.1914 104.774 82.9805C105.04 82.7695 105.236 82.4922 105.364 82.1484C105.491 81.8047 105.555 81.4323 105.555 81.0312C105.555 80.6302 105.491 80.2565 105.364 79.9102C105.236 79.5638 105.04 79.2839 104.774 79.0703C104.508 78.8568 104.17 78.75 103.758 78.75C103.347 78.75 103.008 78.8568 102.743 79.0703C102.477 79.2839 102.28 79.5638 102.153 79.9102C102.025 80.2565 101.961 80.6302 101.961 81.0312C101.961 81.4323 102.025 81.8047 102.153 82.1484C102.28 82.4922 102.477 82.7695 102.743 82.9805C103.008 83.1914 103.347 83.2969 103.758 83.2969ZM110.556 78V78.7812H107.322V78H110.556ZM108.291 84V77.1719C108.291 76.8281 108.371 76.5417 108.533 76.3125C108.694 76.0833 108.904 75.9115 109.162 75.7969C109.419 75.6823 109.692 75.625 109.978 75.625C110.205 75.625 110.389 75.6432 110.533 75.6797C110.676 75.7161 110.783 75.75 110.853 75.7812L110.587 76.5781C110.541 76.5625 110.475 76.543 110.392 76.5195C110.311 76.4961 110.205 76.4844 110.072 76.4844C109.767 76.4844 109.547 76.5612 109.412 76.7148C109.279 76.8685 109.212 77.0937 109.212 77.3906V84H108.291ZM114.52 78V78.7812H111.286V78H114.52ZM112.254 84V77.1719C112.254 76.8281 112.335 76.5417 112.497 76.3125C112.658 76.0833 112.868 75.9115 113.125 75.7969C113.383 75.6823 113.655 75.625 113.942 75.625C114.168 75.625 114.353 75.6432 114.497 75.6797C114.64 75.7161 114.747 75.75 114.817 75.7812L114.551 76.5781C114.504 76.5625 114.439 76.543 114.356 76.5195C114.275 76.4961 114.168 76.4844 114.036 76.4844C113.731 76.4844 113.511 76.5612 113.375 76.7148C113.243 76.8685 113.176 77.0937 113.176 77.3906V84H112.254ZM118.081 84.125C117.502 84.125 117.004 83.9974 116.584 83.7422C116.168 83.4844 115.846 83.125 115.62 82.6641C115.396 82.2005 115.284 81.6615 115.284 81.0469C115.284 80.4323 115.396 79.8906 115.62 79.4219C115.846 78.9505 116.161 78.5833 116.565 78.3203C116.971 78.0547 117.445 77.9219 117.987 77.9219C118.299 77.9219 118.608 77.974 118.913 78.0781C119.217 78.1823 119.495 78.3516 119.745 78.5859C119.995 78.8177 120.194 79.125 120.342 79.5078C120.491 79.8906 120.565 80.362 120.565 80.9219V81.3125H115.94V80.5156H119.627C119.627 80.1771 119.56 79.875 119.424 79.6094C119.292 79.3437 119.101 79.1341 118.854 78.9805C118.609 78.8268 118.32 78.75 117.987 78.75C117.62 78.75 117.302 78.8411 117.034 79.0234C116.768 79.2031 116.564 79.4375 116.42 79.7266C116.277 80.0156 116.206 80.3255 116.206 80.6562V81.1875C116.206 81.6406 116.284 82.0247 116.44 82.3398C116.599 82.6523 116.819 82.8906 117.1 83.0547C117.381 83.2161 117.708 83.2969 118.081 83.2969C118.323 83.2969 118.542 83.263 118.737 83.1953C118.935 83.125 119.105 83.0208 119.249 82.8828C119.392 82.7422 119.502 82.5677 119.581 82.3594L120.471 82.6094C120.377 82.9115 120.22 83.1771 119.999 83.4062C119.777 83.6328 119.504 83.8099 119.178 83.9375C118.853 84.0625 118.487 84.125 118.081 84.125ZM124.483 84.125C123.905 84.125 123.406 83.9974 122.987 83.7422C122.57 83.4844 122.249 83.125 122.022 82.6641C121.798 82.2005 121.686 81.6615 121.686 81.0469C121.686 80.4323 121.798 79.8906 122.022 79.4219C122.249 78.9505 122.564 78.5833 122.967 78.3203C123.374 78.0547 123.847 77.9219 124.389 77.9219C124.702 77.9219 125.01 77.974 125.315 78.0781C125.62 78.1823 125.897 78.3516 126.147 78.5859C126.397 78.8177 126.596 79.125 126.745 79.5078C126.893 79.8906 126.967 80.362 126.967 80.9219V81.3125H122.342V80.5156H126.03C126.03 80.1771 125.962 79.875 125.827 79.6094C125.694 79.3437 125.504 79.1341 125.256 78.9805C125.012 78.8268 124.722 78.75 124.389 78.75C124.022 78.75 123.704 78.8411 123.436 79.0234C123.17 79.2031 122.966 79.4375 122.823 79.7266C122.68 80.0156 122.608 80.3255 122.608 80.6562V81.1875C122.608 81.6406 122.686 82.0247 122.842 82.3398C123.001 82.6523 123.221 82.8906 123.502 83.0547C123.784 83.2161 124.111 83.2969 124.483 83.2969C124.725 83.2969 124.944 83.263 125.139 83.1953C125.337 83.125 125.508 83.0208 125.651 82.8828C125.794 82.7422 125.905 82.5677 125.983 82.3594L126.874 82.6094C126.78 82.9115 126.622 83.1771 126.401 83.4062C126.18 83.6328 125.906 83.8099 125.581 83.9375C125.255 84.0625 124.889 84.125 124.483 84.125Z" fill="black"/>
<path d="M138.899 200.501L138.197 200.559C138.139 200.361 138.052 200.189 137.935 200.045C137.821 199.901 137.685 199.783 137.53 199.691C137.376 199.597 137.208 199.531 137.026 199.493C136.844 199.455 136.657 199.444 136.464 199.46C136.113 199.489 135.803 199.604 135.532 199.805C135.264 200.005 135.06 200.285 134.92 200.645C134.783 201.004 134.735 201.434 134.776 201.937C134.818 202.439 134.936 202.855 135.13 203.187C135.327 203.519 135.574 203.762 135.872 203.916C136.171 204.069 136.497 204.132 136.848 204.103C137.04 204.087 137.223 204.045 137.396 203.978C137.569 203.91 137.724 203.819 137.861 203.703C137.999 203.585 138.113 203.445 138.203 203.284C138.294 203.121 138.352 202.937 138.377 202.734L139.079 202.676C139.051 202.977 138.976 203.25 138.856 203.495C138.735 203.741 138.578 203.954 138.384 204.136C138.19 204.315 137.967 204.458 137.716 204.564C137.466 204.67 137.195 204.736 136.902 204.76C136.408 204.801 135.958 204.716 135.553 204.506C135.148 204.297 134.816 203.978 134.559 203.551C134.301 203.124 134.147 202.604 134.097 201.993C134.046 201.381 134.113 200.843 134.297 200.38C134.481 199.916 134.756 199.548 135.121 199.274C135.486 199.001 135.916 198.844 136.41 198.803C136.703 198.779 136.981 198.798 137.245 198.862C137.51 198.926 137.754 199.031 137.975 199.178C138.196 199.323 138.386 199.507 138.545 199.73C138.704 199.95 138.822 200.208 138.899 200.501ZM142.047 204.346C141.654 204.379 141.302 204.314 140.99 204.151C140.68 203.989 140.428 203.746 140.235 203.424C140.043 203.102 139.928 202.716 139.891 202.267C139.854 201.814 139.903 201.411 140.039 201.06C140.178 200.708 140.386 200.427 140.665 200.216C140.946 200.005 141.283 199.883 141.675 199.85C142.068 199.818 142.419 199.883 142.729 200.045C143.041 200.208 143.293 200.451 143.485 200.775C143.679 201.1 143.795 201.488 143.832 201.941C143.869 202.39 143.819 202.79 143.68 203.14C143.544 203.489 143.335 203.77 143.054 203.981C142.775 204.192 142.439 204.314 142.047 204.346ZM141.997 203.746C142.295 203.721 142.534 203.625 142.714 203.456C142.894 203.287 143.02 203.074 143.092 202.818C143.164 202.561 143.188 202.287 143.164 201.996C143.14 201.706 143.071 201.439 142.958 201.195C142.845 200.952 142.686 200.761 142.48 200.622C142.275 200.483 142.023 200.426 141.725 200.45C141.427 200.475 141.188 200.573 141.008 200.743C140.828 200.914 140.703 201.129 140.631 201.387C140.559 201.646 140.535 201.921 140.559 202.211C140.583 202.502 140.652 202.768 140.765 203.01C140.878 203.251 141.037 203.441 141.242 203.578C141.447 203.715 141.699 203.771 141.997 203.746ZM146.607 199.5L146.654 200.066L144.31 200.26L144.263 199.694L146.607 199.5ZM145.324 203.984L144.916 199.035C144.895 198.786 144.936 198.574 145.04 198.398C145.143 198.222 145.285 198.085 145.465 197.987C145.645 197.888 145.838 197.83 146.046 197.813C146.21 197.8 146.345 197.802 146.451 197.82C146.557 197.837 146.637 197.856 146.69 197.874L146.545 198.468C146.51 198.459 146.462 198.449 146.4 198.437C146.34 198.425 146.262 198.422 146.165 198.43C145.945 198.449 145.79 198.518 145.701 198.637C145.614 198.756 145.579 198.924 145.597 199.139L145.992 203.929L145.324 203.984ZM149.48 199.263L149.527 199.829L147.183 200.023L147.136 199.456L149.48 199.263ZM148.197 203.747L147.789 198.798C147.768 198.549 147.809 198.336 147.913 198.161C148.016 197.985 148.158 197.848 148.338 197.749C148.518 197.651 148.711 197.593 148.919 197.576C149.083 197.562 149.218 197.564 149.324 197.582C149.43 197.6 149.51 197.618 149.563 197.637L149.418 198.23C149.383 198.222 149.335 198.211 149.273 198.199C149.213 198.187 149.135 198.185 149.038 198.193C148.818 198.211 148.663 198.28 148.574 198.4C148.487 198.519 148.452 198.686 148.47 198.901L148.865 203.692L148.197 203.747ZM152.428 203.489C152.009 203.524 151.639 203.461 151.32 203.301C151.003 203.139 150.748 202.898 150.556 202.577C150.366 202.255 150.253 201.871 150.216 201.425C150.179 200.98 150.228 200.581 150.362 200.227C150.498 199.872 150.705 199.587 150.982 199.372C151.26 199.156 151.596 199.031 151.988 198.999C152.215 198.98 152.442 198.999 152.669 199.056C152.896 199.114 153.107 199.22 153.302 199.375C153.497 199.528 153.66 199.738 153.791 200.007C153.921 200.276 154.003 200.613 154.037 201.019L154.06 201.302L150.708 201.579L150.66 201.001L153.333 200.78C153.312 200.535 153.245 200.32 153.131 200.136C153.019 199.951 152.869 199.81 152.68 199.714C152.494 199.617 152.28 199.579 152.038 199.599C151.772 199.621 151.547 199.706 151.363 199.854C151.182 200 151.048 200.182 150.961 200.4C150.875 200.618 150.841 200.847 150.861 201.087L150.893 201.472C150.92 201.801 151 202.074 151.132 202.293C151.265 202.51 151.439 202.67 151.653 202.772C151.866 202.872 152.108 202.911 152.378 202.889C152.554 202.874 152.71 202.837 152.848 202.776C152.987 202.713 153.104 202.627 153.2 202.519C153.295 202.408 153.365 202.275 153.409 202.119L154.07 202.247C154.02 202.472 153.921 202.674 153.775 202.853C153.628 203.031 153.44 203.175 153.212 203.287C152.984 203.397 152.722 203.465 152.428 203.489ZM157.068 203.106C156.649 203.14 156.28 203.078 155.961 202.918C155.643 202.756 155.389 202.515 155.197 202.194C155.007 201.872 154.893 201.488 154.857 201.042C154.82 200.597 154.869 200.197 155.003 199.844C155.139 199.489 155.345 199.204 155.622 198.989C155.901 198.772 156.236 198.648 156.629 198.615C156.855 198.597 157.082 198.616 157.309 198.673C157.536 198.73 157.747 198.837 157.943 198.991C158.138 199.144 158.301 199.355 158.431 199.624C158.562 199.892 158.644 200.23 158.677 200.635L158.7 200.919L155.348 201.195L155.3 200.618L157.973 200.397C157.953 200.152 157.886 199.937 157.772 199.752C157.66 199.568 157.509 199.427 157.321 199.331C157.134 199.234 156.92 199.196 156.678 199.216C156.412 199.238 156.187 199.323 156.004 199.471C155.822 199.617 155.688 199.799 155.602 200.017C155.515 200.235 155.482 200.464 155.501 200.704L155.533 201.089C155.56 201.417 155.64 201.691 155.772 201.91C155.906 202.127 156.08 202.287 156.293 202.389C156.507 202.489 156.749 202.528 157.019 202.506C157.194 202.491 157.351 202.453 157.488 202.393C157.627 202.33 157.745 202.244 157.84 202.136C157.936 202.025 158.005 201.892 158.05 201.736L158.71 201.864C158.66 202.089 158.562 202.291 158.415 202.47C158.268 202.647 158.081 202.792 157.852 202.904C157.624 203.014 157.363 203.081 157.068 203.106Z" fill="black"/>
<path d="M91.625 94.5L91.6875 92.7812L90.2344 93.7031L89.8594 93.0469L91.3906 92.25L89.8594 91.4531L90.2344 90.7969L91.6875 91.7187L91.625 90H92.375L92.3125 91.7187L93.7656 90.7969L94.1406 91.4531L92.6094 92.25L94.1406 93.0469L93.7656 93.7031L92.3125 92.7812L92.375 94.5H91.625Z" fill="black"/>
<path d="M103.625 94.5L103.688 92.7812L102.234 93.7031L101.859 93.0469L103.391 92.25L101.859 91.4531L102.234 90.7969L103.688 91.7187L103.625 90H104.375L104.313 91.7187L105.766 90.7969L106.141 91.4531L104.609 92.25L106.141 93.0469L105.766 93.7031L104.313 92.7812L104.375 94.5H103.625Z" fill="black"/>
<path d="M115.625 94.5L115.688 92.7812L114.234 93.7031L113.859 93.0469L115.391 92.25L113.859 91.4531L114.234 90.7969L115.688 91.7187L115.625 90H116.375L116.313 91.7187L117.766 90.7969L118.141 91.4531L116.609 92.25L118.141 93.0469L117.766 93.7031L116.313 92.7812L116.375 94.5H115.625Z" fill="black"/>
<path d="M127.625 94.5L127.688 92.7812L126.234 93.7031L125.859 93.0469L127.391 92.25L125.859 91.4531L126.234 90.7969L127.688 91.7187L127.625 90H128.375L128.313 91.7187L129.766 90.7969L130.141 91.4531L128.609 92.25L130.141 93.0469L129.766 93.7031L128.313 92.7812L128.375 94.5H127.625Z" fill="black"/>
<path d="M169.223 1.53479C168.667 0.886472 169.412 -0.0485147 170.179 0.326362C184.454 7.31671 196.228 17.9147 201.184 32.7025C202.688 37.1966 203.631 42.2464 201.704 46.5729C200.368 49.5719 197.802 51.8564 195.081 53.6867C188.669 58 176.94 60.2802 171.921 66.6883C170.056 69.0699 168.857 71.9542 168.848 74.9797C168.817 83.4519 176.785 87.3948 183.148 92.5769C183.88 93.1723 183.325 94.341 182.399 94.1646C172.79 92.3563 163.693 87.1522 159.384 77.9655C156.518 71.8528 156.452 64.6816 159.821 58.8292C166.4 47.3976 184.374 53.1134 187.933 40.5087C190.892 30.021 176.503 10.0202 169.231 1.53038L169.223 1.53479Z" fill="white" stroke="black" stroke-width="1.09" stroke-miterlimit="10"/>
<path d="M187.355 88.7311C187.465 87.7917 187.386 86.8038 187.144 85.9173C186.46 83.4166 184.908 81.2027 184.401 78.6623C183.528 74.3049 186.314 69.5109 190.535 68.1129C194.49 66.803 199.213 68.6421 201.352 72.188C201.493 72.4173 201.281 72.7128 201.016 72.6643C198.56 72.2453 195.764 72.188 194.023 73.9345C190.87 77.0967 193.974 82.4861 193.163 86.8787C192.545 90.2262 189.198 92.7797 185.834 92.6915C185.538 92.6827 185.402 92.2902 185.64 92.1138C186.654 91.364 187.201 90.0939 187.36 88.7267L187.355 88.7311Z" fill="white" stroke="black" stroke-width="1.09" stroke-miterlimit="10"/>
<path d="M236.135 99.307L292.09 63.7025" stroke="black" stroke-width="1.09" stroke-miterlimit="10"/>
<path d="M243.341 109.226L263.052 102.985" stroke="black" stroke-width="1.09" stroke-miterlimit="10"/>
<path d="M25.1364 103L73.9013 122.613" stroke="black" stroke-width="1.09" stroke-miterlimit="10"/>
<path d="M76.2819 185.505L12 215.702" stroke="black" stroke-width="1.09" stroke-miterlimit="10"/>
<path d="M233.966 181.145L276.436 200.215" stroke="black" stroke-width="1.09" stroke-miterlimit="10"/>
<path d="M68.9638 159.793L-14.7731 144" stroke="black" stroke-width="1.09" stroke-miterlimit="10"/>
<path d="M240.898 152.539L311.973 145.602" stroke="black" stroke-width="1.09" stroke-miterlimit="10"/>
<path d="M149.344 57.4935C151.14 55.3619 151.296 52.0097 149.707 49.7185C148.118 47.4273 144.927 46.3953 142.303 47.3271C141.203 43.967 138.659 40.924 135.245 39.9949C131.835 39.0693 127.686 40.7983 126.576 44.1556" stroke="black" stroke-width="1.09" stroke-miterlimit="10" stroke-linecap="round"/>
<path d="M208.134 206.442C210.334 204.003 213.919 202.91 217.103 203.712C220.287 204.515 222.933 207.174 223.713 210.363C229.927 208.498 237.264 212.881 238.561 219.237" stroke="black" stroke-width="1.09" stroke-miterlimit="10" stroke-linecap="round"/>
<path d="M201.5 228.5L214 226L215 237C214.833 237.667 213.9 239.1 211.5 239.5C209.1 239.9 182.833 246.167 169.5 249.5" stroke="black" stroke-linecap="round" stroke-linejoin="round"/>
<path d="M125.986 210.048L167.477 205.952" stroke="black" stroke-linecap="round" stroke-linejoin="round"/>
<path d="M160.009 219.095L196 215.5" stroke="black" stroke-linecap="round" stroke-linejoin="round"/>
<path d="M162.008 225.595L197.999 222" stroke="black" stroke-linecap="round" stroke-linejoin="round"/>
<path d="M127.005 218.044L146 216" stroke="black" stroke-linecap="round" stroke-linejoin="round"/>
<path d="M128.005 226.044L147 224" stroke="black" stroke-linecap="round" stroke-linejoin="round"/>
</g>
<defs>
<clipPath id="clip0_360_888">
<rect width="312" height="259" fill="white"/>
</clipPath>
</defs>
</svg>
