<svg width="71" height="71" viewBox="0 0 71 71" fill="none" xmlns="http://www.w3.org/2000/svg">
<g clip-path="url(#clip0_34_188)">
<path d="M23.3384 49.7161L20.8521 43.7228C18.6374 38.3842 14.9989 36.942 12.4628 30.6151C9.69677 23.7342 9.94681 13.9493 17.5266 10.8048C22.2357 8.85121 25.7026 12.7258 27.4785 17.0068C30.7275 24.8384 28.355 33.3492 31.5099 40.9542L33.4113 45.5374C33.9654 46.8731 33.9662 48.3743 33.4135 49.7106C32.8609 51.047 31.8 52.109 30.4642 52.6632C29.1285 53.2173 27.6273 53.2181 26.291 52.6654C24.9546 52.1128 23.8926 51.0518 23.3384 49.7161Z" fill="#FF7F48" stroke="black" stroke-width="2" stroke-linecap="round" stroke-linejoin="round"/>
<path d="M54.864 55.4799L55.2759 49.0044C55.6428 43.2363 58.6183 40.6938 58.9693 33.8865C59.3584 26.4808 55.9536 17.3038 47.764 16.7829C42.6761 16.4593 40.6505 21.2477 40.3563 25.8731C39.8181 34.3348 44.8184 41.619 44.2957 49.8358L43.9808 54.7877C43.889 56.2309 44.3743 57.6515 45.3299 58.7369C46.2854 59.8223 47.6331 60.4837 49.0763 60.5754C50.5195 60.6672 51.9401 60.182 53.0255 59.2264C54.1109 58.2708 54.7722 56.9232 54.864 55.4799Z" fill="#FF7F48" stroke="black" stroke-width="2" stroke-linecap="round" stroke-linejoin="round"/>
<path d="M45.389 47.6335L54.2428 48.2632" stroke="black" stroke-width="2" stroke-linecap="round" stroke-linejoin="round"/>
<path d="M21.3715 41.6057L29.4868 37.7316" stroke="black" stroke-width="2" stroke-linecap="round" stroke-linejoin="round"/>
</g>
<defs>
<clipPath id="clip0_34_188">
<rect width="60" height="60" fill="white" transform="translate(0 11.4981) rotate(-11.0483)"/>
</clipPath>
</defs>
</svg>
