<svg width="64" height="64" viewBox="0 0 64 64" fill="none" xmlns="http://www.w3.org/2000/svg">
<g clip-path="url(#clip0_34_221)">
<path d="M21.3333 37.3333C30.1699 37.3333 37.3333 30.1699 37.3333 21.3333C37.3333 12.4968 30.1699 5.33334 21.3333 5.33334C12.4968 5.33334 5.33334 12.4968 5.33334 21.3333C5.33334 30.1699 12.4968 37.3333 21.3333 37.3333Z" fill="#FF7F48" stroke="black" stroke-width="2" stroke-linecap="round" stroke-linejoin="round"/>
<path d="M24.988 19.5961C24.3068 18.1688 22.5989 16.6884 19.9279 17.9869C18.1085 18.8715 16.9834 20.6973 17.9649 24.2165C18.7655 27.087 21.2795 27.4008 23.146 27.1329C25.0124 26.8649 26.1445 24.7988 25.9514 23.454" stroke="black" stroke-width="2.5" stroke-linecap="round"/>
<path d="M58.5572 28.5164L46.7232 45.5841L36.6834 38.6229L27.6338 51.6746" stroke="#FF7F48" stroke-width="4" stroke-linecap="round" stroke-linejoin="round"/>
<path d="M48.3566 30.3636L58.5572 28.5164L60.4044 38.717" stroke="#FF7F48" stroke-width="4" stroke-linecap="round" stroke-linejoin="round"/>
</g>
<defs>
<clipPath id="clip0_34_221">
<rect width="64" height="64" fill="white"/>
</clipPath>
</defs>
</svg>
